<?xml version="1.0" encoding="utf-8"?>
<!-- Generator: Adobe Illustrator 24.2.3, SVG Export Plug-In . SVG Version: 6.00 Build 0)  -->
<svg version="1.1" id="Layer_2" xmlns="http://www.w3.org/2000/svg" xmlns:xlink="http://www.w3.org/1999/xlink" x="0px" y="0px"
	 viewBox="0 0 720 720" style="enable-background:new 0 0 720 720;" xml:space="preserve">
<style type="text/css">
	.st0{fill:none;stroke:#D86613;stroke-width:20;stroke-miterlimit:10;}
	.st1{fill:#D86613;}
	.st2{fill:none;stroke:#D86613;stroke-width:16;stroke-miterlimit:10;}
</style>
<circle class="st0" cx="362.1" cy="365.3" r="186.9"/>
<g>
	<path class="st1" d="M295.2,196.7L295.2,196.7c-6.4,0-11.7-5.2-11.7-11.7V99.2c0-6.4,5.2-11.7,11.7-11.7h0
		c6.4,0,11.7,5.2,11.7,11.7V185C306.9,191.5,301.6,196.7,295.2,196.7z"/>
	<path class="st1" d="M359.8,178.4L359.8,178.4c-6.4,0-11.7-5.2-11.7-11.7V80.9c0-6.4,5.2-11.7,11.7-11.7h0
		c6.4,0,11.7,5.2,11.7,11.7v85.8C371.4,173.2,366.2,178.4,359.8,178.4z"/>
	<path class="st1" d="M423.7,190.9L423.7,190.9c-6.4,0-11.7-5.2-11.7-11.7v-79.1c0-6.4,5.2-11.7,11.7-11.7h0
		c6.4,0,11.7,5.2,11.7,11.7v79.1C435.3,185.7,430.1,190.9,423.7,190.9z"/>
</g>
<g>
	<path class="st1" d="M423.7,642.6L423.7,642.6c6.4,0,11.7-5.2,11.7-8v-85.8c0-10.1-5.2-15.3-11.7-15.3h0c-6.4,0-11.7,5.2-11.7,11.7
		v85.8C412,637.4,417.2,642.6,423.7,642.6z"/>
	<path class="st1" d="M359.1,658.5L359.1,658.5c6.4,0,11.7-5.2,11.7-11.7V555c0-6.4-5.2-11.7-11.7-11.7h0c-6.4,0-11.7,5.2-11.7,11.7
		v91.8C347.5,653.3,352.7,658.5,359.1,658.5z"/>
	<path class="st1" d="M295.2,635L295.2,635c6.4,0,11.7-5.2,11.7-11.7v-79.1c0-6.4-5.2-11.7-11.7-11.7h0c-6.4,0-11.7,5.2-11.7,11.7
		v79.1C283.5,629.7,288.8,635,295.2,635z"/>
</g>
<g>
	<path class="st1" d="M530.5,301L530.5,301c0-6.4,5.2-11.7,11.7-11.7H628c6.4,0,11.7,5.2,11.7,11.7v0c0,6.4-5.2,11.7-11.7,11.7
		h-85.8C535.7,312.7,530.5,307.5,530.5,301z"/>
	<path class="st1" d="M548.8,365.6L548.8,365.6c0-6.4,5.2-11.7,11.7-11.7h85.8c6.4,0,11.7,5.2,11.7,11.7v0c0,6.4-5.2,11.7-11.7,11.7
		h-85.8C554,377.3,548.8,372,548.8,365.6z"/>
	<path class="st1" d="M536.3,429.5L536.3,429.5c0-6.4,5.2-11.7,11.7-11.7h79.1c6.4,0,11.7,5.2,11.7,11.7v0c0,6.4-5.2,11.7-11.7,11.7
		H548C541.5,441.2,536.3,435.9,536.3,429.5z"/>
</g>
<g>
	<path class="st1" d="M192.9,301L192.9,301c0-6.4-5.2-11.7-11.7-11.7H95.5c-6.4,0-11.7,5.2-11.7,11.7v0c0,6.4,5.2,11.7,11.7,11.7
		h85.8C187.7,312.7,192.9,307.5,192.9,301z"/>
	<path class="st1" d="M174.6,365.6L174.6,365.6c0-6.4-5.2-11.7-11.7-11.7H77.2c-6.4,0-11.7,5.2-11.7,11.7v0
		c0,6.4,5.2,11.7,11.7,11.7H163C169.4,377.3,174.6,372,174.6,365.6z"/>
	<path class="st1" d="M187.1,429.5L187.1,429.5c0-6.4-5.2-11.7-11.7-11.7H96.3c-6.4,0-11.7,5.2-11.7,11.7v0
		c0,6.4,5.2,11.7,11.7,11.7h79.1C181.9,441.2,187.1,435.9,187.1,429.5z"/>
</g>
<g>
	<path class="st2" d="M394.6,305.9v83.7c0,7.3-5.9,13.2-13.2,13.2h-83.7c-7.3,0-13.2-5.9-13.2-13.2v-83.7c0-7.3,5.9-13.2,13.2-13.2
		h83.7C388.7,292.7,394.6,298.6,394.6,305.9z"/>
	<path class="st2" d="M440.1,355.9v83.7c0,7.3-5.9,13.2-13.2,13.2h-83.7c-7.3,0-13.2-5.9-13.2-13.2v-36.9h51.4
		c7.3,0,13.2-5.9,13.2-13.2v-46.9h32.3C434.2,342.7,440.1,348.6,440.1,355.9z"/>
</g>
</svg>
